<svg width="512" height="512" viewBox="0 0 512 512" xmlns="http://www.w3.org/2000/svg">
  <!-- Background -->
  <rect width="512" height="512" fill="#4F46E5" rx="80"/>

  <!-- QI Text -->
  <g fill="white">
    <!-- Q Letter -->
    <path d="M140 180 Q140 140 180 140 L200 140 Q240 140 240 180 L240 280 Q240 320 200 320 L190 320 Q160 320 150 290" stroke="white" stroke-width="20" fill="none"/>
    <line x1="220" y1="300" x2="250" y2="330" stroke="white" stroke-width="20" stroke-linecap="round"/>

    <!-- I Letter -->
    <rect x="300" y="140" width="20" height="180" fill="white"/>
    <rect x="280" y="140" width="60" height="20" fill="white"/>
    <rect x="280" y="300" width="60" height="20" fill="white"/>
  </g>

  <!-- Survey Icon (clipboard) -->
  <g transform="translate(180, 370)">
    <rect x="0" y="0" width="150" height="100" rx="10" fill="white" opacity="0.9"/>
    <rect x="20" y="20" width="110" height="10" rx="5" fill="#4F46E5"/>
    <rect x="20" y="40" width="110" height="10" rx="5" fill="#4F46E5"/>
    <rect x="20" y="60" width="70" height="10" rx="5" fill="#4F46E5"/>
  </g>
</svg>
